<svg height="471pt" viewBox="-3 0 471 471.88031" width="471pt" xmlns="http://www.w3.org/2000/svg"><path d="m410.121094 294.640625c-7.769532-3.210937-15.960938-5.285156-24.320313-6.160156-3.109375-.320313-6.234375-.480469-9.359375-.480469-31.449218.074219-60.5 16.820312-76.320312 44-5.214844 9.046875-8.742188 18.96875-10.402344 29.28125-.859375 4.859375-1.285156 9.785156-1.277344 14.71875-.046875 17.058594 4.933594 33.753906 14.320313 48h-86.320313c-.320312 0-.480468.160156-.800781.160156-3.785156-18.640625-20.175781-32.039062-39.199219-32.039062-19.023437 0-35.414062 13.398437-39.203125 32.039062-.316406 0-.476562-.160156-.796875-.160156h-17.679687c-4.089844.003906-7.53125-3.058594-8-7.121094l-7.363281-64.878906h171.839843c.097657-.464844.230469-.917969.402344-1.359375.238281-.960937.480469-2 .800781-2.960937.480469-1.839844 1.039063-3.597657 1.597656-5.28125.320313-1.039063.722657-2 1.042969-3.039063.476563-1.121094.878907-2.238281 1.359375-3.359375h-112c-4.417968 0-8-3.582031-8-8s3.582032-8 8-8h120.398438c19.160156-29.832031 52.144531-47.90625 87.601562-48 3.125 0 6.25.160156 9.359375.480469.960938.078125 1.839844.160156 2.800781.320312 2.238282.238281 4.398438.558594 6.636719.960938.960938.160156 1.921875.320312 2.882813.558593 2.347656.464844 4.671875 1.050782 6.960937 1.761719.699219.148438 1.394531.335938 2.078125.558594.238282.078125.480469.078125.640625.160156l38-132.800781h-365.921875l-1.839844-16h378.402344c4.417969 0 8-3.582031 8-8s-3.582031-8-8-8h-380.160156l-10.320312-90.640625c-1.289063-12.179687-11.589844-21.4101562-23.839844-21.359375h-33.679688c-4.417968 0-8 3.582031-8 8s3.582032 8 8 8h33.679688c4.085937-.003906 7.527344 3.058594 8 7.121094l44.800781 395.519531c1.289063 12.183594 11.589844 21.410156 23.839844 21.359375h17.679687c.320313 0 .480469-.160156.796875-.160156 3.789063 18.644531 20.179688 32.039062 39.203125 32.039062 19.023438 0 35.414063-13.394531 39.199219-32.039062.320313 0 .480469.160156.800781.160156h99.839844c25.683594 24.128906 63.292969 30.59375 95.558594 16.425781 32.269531-14.164062 52.964844-46.222656 52.589844-81.460937-.375-35.238282-21.746094-66.847656-54.308594-80.324219zm-289.679688 25.359375h16c4.417969 0 8 3.582031 8 8s-3.582031 8-8 8h-16c-4.417968 0-8-3.582031-8-8s3.582032-8 8-8zm328 56c0 4.417969-3.582031 8-8 8h-56v56c0 4.417969-3.582031 8-8 8-4.417968 0-8-3.582031-8-8v-56h-56c-4.417968 0-8-3.582031-8-8s3.582032-8 8-8h56v-56c0-4.417969 3.582032-8 8-8 4.417969 0 8 3.582031 8 8v56h56c4.417969 0 8 3.582031 8 8zm0 0"/></svg>