<svg height="464pt" viewBox="-8 0 464 464.00407" width="464pt" xmlns="http://www.w3.org/2000/svg"><path d="m255.945312 16.003906c2.910157 1.558594 5.539063 3.589844 7.777344 6.015625 4.484375 5.46875 10.871094 9.035157 17.878906 9.984375 7.378907-.941406 14.117188-4.660156 18.847657-10.398437 2.023437-2.125 4.292969-4.003907 6.753906-5.601563 1.648437.070313 5.957031 4.113282 8.277344 6.28125 4.316406 5.335938 10.515625 8.816406 17.320312 9.71875 7.855469-.996094 15.035157-4.9375 20.097657-11.023437 1.960937-1.839844 4.925781-4.632813 5.503906-4.976563 4.296875 0 5.28125 1.425782 7.917968 5.230469 3.472657 6.5625 10.257813 10.695313 17.683594 10.769531 4.417969 0 8-3.582031 8-8 0-4.417968-3.582031-8-8-8-1.601562 0-1.914062-.113281-4.515625-3.863281-4.246093-7.632813-12.355469-12.296875-21.085937-12.13671875-6.472656.89453175-12.363282 4.22656275-16.464844 9.31249975-2.65625 2.503906-7.113281 6.6875-8.800781 6.726563-2.476563-1.5-4.742188-3.328125-6.734375-5.429688-4.8125-5.859375-11.679688-9.652343-19.199219-10.60937475-6.933594.94531275-13.253906 4.47656275-17.6875 9.88671875-2.25 2.40625-4.839844 4.464844-7.691406 6.113281-2.667969-1.527344-5.09375-3.441406-7.199219-5.679687-4.675781-5.675781-11.332031-9.367188-18.621094-10.32031275-4.421875-.01562505-8.015625 3.55468775-8.03125 7.97265575-.015625 4.417969 3.554688 8.011719 7.972656 8.027344zm0 0"/><path d="m176.003906 384.003906h16v32h-16zm0 0"/><path d="m48.003906 384.003906h16v32h-16zm0 0"/><path d="m112.003906 384.003906h16v32h-16zm0 0"/><path d="m448.003906 464.003906v-168h-136c-4.421875 0-8-3.582031-8-8v-39.351562l-67 53.601562c-2.402344 1.921875-5.695312 2.296875-8.46875.964844-2.769531-1.332031-4.535156-4.136719-4.53125-7.214844v-47.351562l-67 53.601562c-2.402344 1.921875-5.695312 2.296875-8.46875.964844-2.769531-1.332031-4.535156-4.136719-4.53125-7.214844v-47.351562l-67 53.601562c-2.402344 1.921875-5.695312 2.296875-8.46875.964844-2.769531-1.332031-4.535156-4.136719-4.53125-7.214844v-49.863281l-63.99999975 38.398437v179.464844h239.99999975v-104c0-4.417968 3.578125-8 8-8h64c4.417969 0 8 3.582032 8 8v104zm-368-40c0 4.417969-3.582031 8-8 8h-32c-4.421875 0-8-3.582031-8-8v-48c0-4.417968 3.578125-8 8-8h32c4.417969 0 8 3.582032 8 8zm64 0c0 4.417969-3.582031 8-8 8h-32c-4.421875 0-8-3.582031-8-8v-48c0-4.417968 3.578125-8 8-8h32c4.417969 0 8 3.582032 8 8zm64 0c0 4.417969-3.582031 8-8 8h-32c-4.421875 0-8-3.582031-8-8v-48c0-4.417968 3.578125-8 8-8h32c4.417969 0 8 3.582032 8 8zm0 0"/><path d="m256.003906 368.003906h48v96h-48zm0 0"/><path d="m367.472656 64.003906-14.902344 216h62.863282l-14.902344-216zm0 0"/></svg>