<svg height="480pt" viewBox="0 0 480 480" width="480pt" xmlns="http://www.w3.org/2000/svg"><path d="m432 240c0 106.039062-85.960938 192-192 192s-192-85.960938-192-192 85.960938-192 192-192 192 85.960938 192 192zm0 0" fill="#cfd2fc"/><path d="m240 480c-132.546875 0-240-107.453125-240-240s107.453125-240 240-240 240 107.453125 240 240c-.148438 132.484375-107.515625 239.851562-240 240zm0-464c-123.710938 0-224 100.289062-224 224s100.289062 224 224 224 224-100.289062 224-224c-.140625-123.652344-100.347656-223.859375-224-224zm0 0" fill="#8690fa"/><path d="m320 240c-.011719-5.835938-.664062-11.65625-1.945312-17.351562l30.9375-17.847657-24-41.601562-30.984376 17.890625c-8.605468-7.9375-18.847656-13.882813-30.007812-17.417969v-35.671875h-48v35.671875c-11.160156 3.539063-21.40625 9.488281-30.007812 17.433594l-30.984376-17.90625-24 41.601562 30.9375 17.863281c-2.59375 11.421876-2.59375 23.28125 0 34.703126l-30.9375 17.832031 24 41.601562 30.984376-17.890625c8.605468 7.9375 18.847656 13.882813 30.007812 17.417969v35.671875h48v-35.671875c11.160156-3.539063 21.40625-9.488281 30.007812-17.433594l30.984376 17.90625 24-41.601562-30.9375-17.863281c1.28125-5.691407 1.929687-11.503907 1.945312-17.335938zm-80 32c-17.671875 0-32-14.328125-32-32s14.328125-32 32-32 32 14.328125 32 32-14.328125 32-32 32zm0 0" fill="#5153ff"/></svg>