<?xml version="1.0" encoding="iso-8859-1"?>
<!-- Generator: Adobe Illustrator 19.0.0, SVG Export Plug-In . SVG Version: 6.00 Build 0)  -->
<svg version="1.1" id="Capa_1" xmlns="http://www.w3.org/2000/svg" xmlns:xlink="http://www.w3.org/1999/xlink" x="0px" y="0px"
	 viewBox="0 0 512 512" style="enable-background:new 0 0 512 512;" xml:space="preserve">
<g>
	<circle style="fill:#FFFFFF;" cx="408" cy="396.966" r="8.8"/>
	<circle style="fill:#FFFFFF;" cx="116.8" cy="396.966" r="8.8"/>
	<path style="fill:#FFFFFF;" d="M8,396.966h479.2c8.8,0,16.8-7.2,16.8-16.8v-133.6c0-3.2-0.8-5.6-2.4-8l-49.6-88
		c-3.2-4.8-8-8-14.4-8h-136l1.6,153.6L8,295.366V396.966z"/>
</g>
<polygon style="fill:#27A2DE;" points="468,246.566 428,175.366 335.2,175.366 336,246.566 "/>
<path style="fill:#D3D7DA;" d="M301.6,68.966H8v226.4h294.4v-225.6C302.4,68.966,302.4,68.966,301.6,68.966z"/>
<g>
	<path style="fill:#FFFFFF;" d="M64,103.366c-8,0-14.4,6.4-14.4,14.4v128.8c0,8,6.4,14.4,14.4,14.4s14.4-6.4,14.4-14.4v-128.8
		C78.4,109.766,72,103.366,64,103.366z"/>
	<path style="fill:#FFFFFF;" d="M124.8,103.366c-8,0-14.4,6.4-14.4,14.4v128.8c0,8,6.4,14.4,14.4,14.4s14.4-6.4,14.4-14.4v-128.8
		C139.2,109.766,132.8,103.366,124.8,103.366z"/>
	<path style="fill:#FFFFFF;" d="M185.6,103.366c-8,0-14.4,6.4-14.4,14.4v128.8c0,8,6.4,14.4,14.4,14.4s14.4-6.4,14.4-14.4v-128.8
		C200,109.766,193.6,103.366,185.6,103.366z"/>
	<path style="fill:#FFFFFF;" d="M246.4,103.366c-8,0-14.4,6.4-14.4,14.4v128.8c0,8,6.4,14.4,14.4,14.4s14.4-6.4,14.4-14.4v-128.8
		C260.8,109.766,254.4,103.366,246.4,103.366z"/>
</g>
<g>
	<circle style="fill:#F15F50;" cx="408" cy="396.966" r="46.4"/>
	<circle style="fill:#F15F50;" cx="116.8" cy="396.966" r="46.4"/>
</g>
<polygon style="fill:#D3D7DA;" points="302.4,68.966 420,142.566 302.4,142.566 "/>
<g>
	<path style="fill:#193651;" d="M512,246.566c0-4-0.8-8-3.2-12l-49.6-88c-4-8-12.8-12.8-21.6-12.8h-16l-114.4-72
		c-1.6-0.8-3.2-1.6-4.8-0.8H0v344h63.2c4,26.4,26.4,46.4,53.6,46.4s49.6-20,53.6-46.4h183.2c4,26.4,26.4,46.4,53.6,46.4
		s49.6-20,53.6-46.4h26.4c13.6,0,24.8-11.2,24.8-24.8L512,246.566L512,246.566z M310.4,83.366l81.6,51.2h-81.6V83.366z M16,76.966
		h278.4v210.4H16V76.966z M116.8,435.366c-21.6,0-38.4-17.6-38.4-38.4c0-21.6,17.6-38.4,38.4-38.4s38.4,17.6,38.4,38.4
		C155.2,418.566,138.4,435.366,116.8,435.366z M408,435.366c-21.6,0-38.4-17.6-38.4-38.4c0-21.6,17.6-38.4,38.4-38.4
		c21.6,0,38.4,17.6,38.4,38.4C446.4,418.566,428.8,435.366,408,435.366z M496,287.366h-22.4v16H496v76.8c0,4.8-4,8.8-8.8,8.8h-26.4
		c-4-26.4-26.4-46.4-53.6-46.4s-49.6,20-53.6,46.4H170.4c-4-26.4-26.4-46.4-53.6-46.4s-49.6,20-53.6,46.4H16v-24.8h18.4v-16H16
		v-44.8l295.2,0.8l-0.8-153.6h127.2c3.2,0,5.6,1.6,7.2,4l49.6,88c0.8,1.6,0.8,2.4,0.8,4v40.8H496z"/>
	<rect x="203.2" y="342.566" style="fill:#193651;" width="16" height="16"/>
	<rect x="252.8" y="342.566" style="fill:#193651;" width="16" height="16"/>
	<rect x="303.2" y="342.566" style="fill:#193651;" width="16" height="16"/>
</g>
<g>
</g>
<g>
</g>
<g>
</g>
<g>
</g>
<g>
</g>
<g>
</g>
<g>
</g>
<g>
</g>
<g>
</g>
<g>
</g>
<g>
</g>
<g>
</g>
<g>
</g>
<g>
</g>
<g>
</g>
</svg>
